PathFileType	4	(X/Y/Z)	/Users/itak/Documents/Research/Walk-IL/dataset/trc/00172_00008.trc
DataRate	CameraRate	NumFrames	NumMarkers	Units	OrigDataRate	OrigDataStartFrame	OrigNumFrames
100.000000	100.000000	4	53	mm	100.000000	217	579
Frame#	Time	RPSI			LPSI			L3			STRN			T10			C7			CLAV			RBAK			LBAK			LSHO			LUPA			LAEL			LAOL			LWTS			LWPS			LFRA			LIFD			LHPS			LHTS			RSHO			RUPA			RAEL			RAOL			RWTS			RWPS			RFRA			RIFD			RHTS			RHPS			RBHD			LFHD			RFHD			LBHD			LHIP			RHIP			RASI			LASI			LKNE			LTHI			LANK			LTIP			LTOE			LMT1			LMT5			LHEE			RKNE			RANK			RTIP			RTOE			RMT1			RMT5			RHEE			RTHI			
		X1	Y1	Z1	X2	Y2	Z2	X3	Y3	Z3	X4	Y4	Z4	X5	Y5	Z5	X6	Y6	Z6	X7	Y7	Z7	X8	Y8	Z8	X9	Y9	Z9	X10	Y10	Z10	X11	Y11	Z11	X12	Y12	Z12	X13	Y13	Z13	X14	Y14	Z14	X15	Y15	Z15	X16	Y16	Z16	X17	Y17	Z17	X18	Y18	Z18	X19	Y19	Z19	X20	Y20	Z20	X21	Y21	Z21	X22	Y22	Z22	X23	Y23	Z23	X24	Y24	Z24	X25	Y25	Z25	X26	Y26	Z26	X27	Y27	Z27	X28	Y28	Z28	X29	Y29	Z29	X30	Y30	Z30	X31	Y31	Z31	X32	Y32	Z32	X33	Y33	Z33	X34	Y34	Z34	X35	Y35	Z35	X36	Y36	Z36	X37	Y37	Z37	X38	Y38	Z38	X39	Y39	Z39	X40	Y40	Z40	X41	Y41	Z41	X42	Y42	Z42	X43	Y43	Z43	X44	Y44	Z44	X45	Y45	Z45	X46	Y46	Z46	X47	Y47	Z47	X48	Y48	Z48	X49	Y49	Z49	X50	Y50	Z50	X51	Y51	Z51	X52	Y52	Z52	X53	Y53	Z53	

218	2.17	343.461181640625	1064.537719726562	213.8392791748047	330.6198120117188	1063.925659179688	91.46217346191406	342.006103515625	1103.785034179688	151.4482269287109	615.1209716796875	1295.957153320312	104.8784866333008	321.1277465820312	1264.91943359375	135.7996826171875	400.4306640625	1528.430786132812	101.5740814208984	592.9960327148438	1410.651123046875	91.84739685058594	335.0751037597656	1364.379760742188	226.4759521484375	381.6820983886719	1499.372924804688	3.9528648853302	450.01416015625	1478.464599609375	-80.15824890136719	402.7434997558594	1347.707153320312	-146.7406311035156	402.9312438964844	1130.639892578125	-163.88623046875	366.1190490722656	1117.007080078125	-84.83025360107422	510.5745239257812	896.5632934570312	-148.4678497314453	422.8125305175781	876.6769409179688	-174.7490539550781	411.1169738769531	1019.576171875	-178.6812744140625	528.064697265625	710.9329833984375	-132.3393096923828	443.5771179199219	806.5523071289062	-173.8729095458984	516.3575439453125	818.2235717773438	-170.7717590332031	481.2742309570312	1510.465454101562	277.3226928710938	463.9412231445312	1448.219604492188	351.2172241210938	435.3766784667969	1159.989990234375	413.0807495117188	427.2957458496094	1151.103271484375	316.8646240234375	583.0503540039062	939.7156372070312	388.8026123046875	509.8244018554688	915.4605712890625	432.3334350585938	462.4613342285156	1086.61767578125	429.5500183105469	615.0858764648438	756.5414428710938	357.05859375	616.4381713867188	848.5276489257812	394.5966186523438	543.484375	834.3033447265625	425.3058166503906	465.8905944824219	1681.394775390625	166.779541015625	612.5554809570312	1729.0390625	13.12993907928467	629.4937133789062	1735.058959960938	141.1045379638672	438.0872497558594	1682.675659179688	31.16825866699219	414.3159484863281	990.4932861328125	-35.55731582641602	505.1035766601562	1025.480712890625	324.1629028320312	579.1060791015625	1048.293823242188	257.7047119140625	547.2118530273438	1026.678955078125	0.8422306180000305	482.7179260253906	491.1719665527344	16.08179473876953	468.8230590820312	634.4210815429688	-14.73568344116211	336.2193298339844	42.6118278503418	62.46099472045898	414.94189453125	267.1588134765625	27.92687034606934	555.797607421875	40.15290069580078	54.29954528808594	515.0006713867188	43.065185546875	108.6160583496094	436.5729675292969	31.34775924682617	5.311569213867188	296.4248657226562	50.29460144042969	138.0953369140625	678.9075317382812	549.8388671875	319.6356201171875	465.2384338378906	101.0063552856445	356.7501220703125	666.7229614257812	423.1328735351562	317.8202819824219	682.6153564453125	66.02103424072266	348.0109558105469	633.9573974609375	64.20864105224609	297.0404357910156	568.0921020507812	74.39469146728516	401.5961303710938	422.3530578613281	106.1981201171875	281.4834594726562	609.1475830078125	814.3463745117188	328.6869201660156	
219	2.18	338.6463623046875	1064.779174804688	214.1674957275391	325.6097412109375	1064.160888671875	91.77857971191406	337.0506896972656	1103.981811523438	151.7926330566406	609.4763793945312	1296.968627929688	104.9144821166992	315.5951843261719	1264.817138671875	135.9246368408203	393.8834228515625	1528.6103515625	101.4328384399414	586.8795776367188	1411.538696289062	91.80629730224609	329.1336975097656	1364.432373046875	226.4358215332031	375.1870727539062	1499.357543945312	3.804459095001221	443.6282653808594	1478.6640625	-80.2608642578125	396.7343139648438	1347.873168945312	-146.9075775146484	397.0600280761719	1131.098266601562	-164.4194030761719	360.2240295410156	1117.343994140625	-85.32286834716797	502.1695861816406	895.7604370117188	-149.9800415039062	414.2481994628906	877.2194213867188	-176.6344757080078	404.2867431640625	1020.218994140625	-179.7119293212891	516.864501953125	709.6859741210938	-134.7028350830078	433.9898986816406	806.791015625	-176.0721130371094	506.902099609375	817.3825073242188	-172.6442565917969	474.6575927734375	1511.238525390625	277.0839538574219	457.3689270019531	1449.202880859375	351.1059265136719	428.9927978515625	1161.186767578125	413.9791259765625	420.894775390625	1152.015625	317.7540283203125	577.2464599609375	941.2784423828125	389.7107543945312	504.2273864746094	916.8153076171875	433.4458618164062	456.2954406738281	1087.837036132812	430.546630859375	610.0829467773438	758.2721557617188	358.0635986328125	611.078369140625	850.27978515625	395.5858764648438	538.2044067382812	835.7521362304688	426.4364929199219	458.6752624511719	1682.338134765625	165.7844696044922	605.2679443359375	1729.53662109375	11.9022970199585	622.1426391601562	1736.41357421875	139.8339691162109	430.8904418945312	1682.694580078125	30.16701316833496	409.5048217773438	990.9030151367188	-35.2663459777832	500.5340270996094	1025.700073242188	324.3472900390625	574.2783203125	1048.716796875	257.7555236816406	542.2549438476562	1027.204833984375	0.9724844694137573	479.052490234375	491.7532653808594	16.38188743591309	464.6751708984375	634.8939208984375	-14.57402515411377	336.0980224609375	42.16394424438477	62.32220077514648	413.0079650878906	267.3180541992188	27.99563407897949	555.731201171875	40.16374969482422	54.32955551147461	514.9511108398438	43.1779670715332	108.5699691772461	436.4955749511719	31.25674629211426	5.100128173828125	296.2388916015625	49.6845588684082	138.0268402099609	670.9478149414062	548.306884765625	320.4934692382812	441.7285766601562	107.2858352661133	357.4767150878906	655.0924072265625	422.0086364746094	318.8193969726562	657.9330444335938	65.89029693603516	349.902587890625	609.5477905273438	65.25328826904297	298.7030334472656	543.5584106445312	77.76278686523438	402.8310546875	399.4187927246094	113.4595642089844	282.13818359375	604.8370361328125	815.0819702148438	329.9032592773438	
220	2.19	333.833251953125	1064.874633789062	214.5399932861328	320.6057739257812	1064.270141601562	92.13906860351562	332.0995483398438	1104.048950195312	152.1972503662109	603.8228149414062	1297.80712890625	104.9720611572266	310.0847778320312	1264.598266601562	136.1893615722656	387.3896179199219	1528.660034179688	101.416389465332	580.7838134765625	1412.248168945312	91.78884124755859	323.2568359375	1364.363159179688	226.5453948974609	368.7050476074219	1499.212524414062	3.770179033279419	437.1919555664062	1478.714233398438	-80.275146484375	390.6244201660156	1347.882690429688	-146.9463958740234	391.1016845703125	1131.396484375	-164.8381195068359	354.2784729003906	1117.496948242188	-85.67707061767578	493.8363647460938	894.8978271484375	-151.4201049804688	405.7815856933594	877.6441650390625	-178.3720092773438	397.4372863769531	1020.710815429688	-180.6155853271484	505.9264221191406	708.454345703125	-137.0215301513672	424.5523986816406	806.9463500976562	-178.144775390625	497.5847778320312	816.5213012695312	-174.4548645019531	468.1854858398438	1511.8564453125	276.9250183105469	450.993896484375	1450.02099609375	351.0833435058594	422.8721923828125	1162.241821289062	415.032958984375	414.6326599121094	1152.773681640625	318.834716796875	571.587890625	942.6509399414062	390.6780395507812	498.7961120605469	918.0165405273438	434.6855773925781	450.3835144042969	1088.92431640625	431.6777038574219	605.129150390625	759.79541015625	359.1683959960938	605.8161010742188	851.8335571289062	396.6391296386719	533.0537719726562	837.0407104492188	427.6937255859375	451.4417419433594	1683.074829101562	164.8713531494141	597.9464721679688	1729.940551757812	10.77651214599609	614.7426147460938	1737.64111328125	138.6759185791016	423.6920776367188	1682.5361328125	29.24792098999023	404.6849670410156	991.2320556640625	-34.9620475769043	495.8942565917969	1025.698852539062	324.6082763671875	569.4564208984375	1048.955444335938	257.9242248535156	537.3421630859375	1027.619262695312	1.206515312194824	475.3879089355469	492.2520446777344	16.68091011047363	460.5101013183594	635.2841186523438	-14.40610599517822	335.9599914550781	41.68743133544922	62.17993927001953	411.0772705078125	267.4207763671875	28.07462882995605	555.64306640625	40.16688537597656	54.36512756347656	514.87939453125	43.29174041748047	108.525993347168	436.4097595214844	31.16634559631348	4.881935119628906	296.0376586914062	49.0321044921875	137.9766845703125	662.5472412109375	546.4873657226562	321.4238586425781	418.4372253417969	113.6094512939453	358.1513977050781	643.1541748046875	420.73095703125	319.8813171386719	633.3073120117188	65.92815399169922	351.8103332519531	585.1881103515625	66.40682983398438	300.4048767089844	519.1480712890625	81.21219635009766	404.1073913574219	376.7169189453125	120.7345504760742	282.8381958007812	600.0847778320312	815.173583984375	330.9212036132812	
221	2.2	329.0093994140625	1064.837646484375	214.9579010009766	315.5969543457031	1064.268676757812	92.54747009277344	327.1476440429688	1104.000732421875	152.6621856689453	598.1556396484375	1298.48388671875	105.0574645996094	304.580078125	1264.282592773438	136.5892028808594	380.9423217773438	1528.597045898438	101.518196105957	574.7036743164062	1412.791015625	91.79989624023438	317.4313049316406	1364.190063476562	226.7996520996094	362.2310791015625	1498.952392578125	3.84903883934021	430.7060852050781	1478.623413085938	-80.20108032226562	384.406494140625	1347.741455078125	-146.8537139892578	385.0342712402344	1131.536865234375	-165.1405639648438	348.2749938964844	1117.472412109375	-85.88846588134766	485.579833984375	893.990478515625	-152.8004150390625	397.4091796875	877.9432983398438	-179.9304656982422	390.5491027832031	1021.047546386719	-181.3818511962891	495.3045349121094	707.2538452148438	-139.2848968505859	415.2776794433594	807.0166625976562	-180.0569000244141	488.4244384765625	815.6507568359375	-176.2044982910156	461.8502502441406	1512.332153320312	276.8504028320312	444.8044128417969	1450.681274414062	351.1512756347656	417.017578125	1163.156372070312	416.22119140625	408.5190124511719	1153.384155273438	320.0818786621094	566.0693969726562	943.8200073242188	391.7106628417969	493.5106506347656	919.0580444335938	436.0343933105469	444.7235717773438	1089.879760742188	432.9248352050781	600.1801147460938	761.0889892578125	360.3578796386719	600.622802734375	853.1650390625	397.7539367675781	527.9971313476562	838.1557006835938	429.0536193847656	444.2070617675781	1683.626708984375	164.0457611083984	590.599853515625	1730.255249023438	9.749724388122559	607.3132934570312	1738.749389648438	137.6236877441406	416.5066528320312	1682.222534179688	28.41586112976074	399.8364868164062	991.5008544921875	-34.64447021484375	491.1747436523438	1025.4921875	324.9446716308594	564.6349487304688	1049.029907226562	258.2121887207031	532.4722900390625	1027.939697265625	1.546637892723083	471.73974609375	492.691162109375	16.9747314453125	456.3346252441406	635.6162109375	-14.22957134246826	335.8073425292969	41.20121383666992	62.04458236694336	409.1634216308594	267.4864501953125	28.16452026367188	555.5359497070312	40.1634635925293	54.40251922607422	514.7908935546875	43.40696334838867	108.4813232421875	436.3218078613281	31.07762145996094	4.670275211334229	295.8397827148438	48.36342239379883	137.9398193359375	653.6868286132812	544.408935546875	322.4345092773438	395.4198608398438	119.8679504394531	358.8210144042969	630.9160766601562	419.3159484863281	321.0181884765625	608.8297729492188	66.09844207763672	353.7015380859375	560.9583740234375	67.62532806396484	302.1247863769531	494.9398803710938	84.67048645019531	405.4434204101562	354.3102111816406	127.9514236450195	283.5867309570312	594.86474609375	814.646484375	331.78369140625	
